# xmcd
#
# Track frame offsets:
#	150
#	23173
#	47094
#	69301
#	92077
#	113618
#	139143
#	159931
#	189072
#	211923
#	231731
#
# Disc length: 3349
#
# Revision: 2
# Processed by: cddbd v1.5.1PL0 Copyright (c) Steve Scherf et al.
# Submitted via: CDex 1.50Beta7
# Normalized: r1:TDELIM( - )
#
DISCID=8b0d130b
DTITLE=Various Artist - Salsa Sudamericana
DYEAR=1998
DGENRE=Salsa
TTITLE0=Valle del Cauca - Grupo Niche
TTITLE1=Brazos de Fuego - Sandunga
TTITLE2=Sublime Ilusion - Nelson y sus Estrellas
TTITLE3=A Guarachar - Conjunto Barroco
TTITLE4=Paloma - Sandunga
TTITLE5=Soy para Ti - Maraba
TTITLE6=Rumba Internacional - Tumbadora
TTITLE7=Amorosa Guajira - Nelson y sus Estrellas
TTITLE8=Otra Noche - Sandunga
TTITLE9=La Negra Cumbia - Nueva Bronko
TTITLE10=Barranquilla - La Combinacion
EXTD=YEAR: 1998
EXTT0=
EXTT1=
EXTT2=
EXTT3=
EXTT4=
EXTT5=
EXTT6=
EXTT7=
EXTT8=
EXTT9=
EXTT10=
PLAYORDER=
